<svg width="40" height="40" viewBox="0 0 24 24" fill="#25D366" xmlns="http://www.w3.org/2000/svg">
<path d="M20.52 3.49A11.79 11.79 0 0012.04 0C5.4 0 .03 5.37.03 12.02a11.9 11.9 0 001.61 6.04L0 24l6.15-1.6a11.88 11.88 0 005.89 1.55h.01c6.63 0 12.01-5.37 12.01-12.02a11.9 11.9 0 00-3.54-8.93zM12.05 21.86h-.01a9.77 9.77 0 01-4.99-1.37l-.36-.21-3.64.95.97-3.55-.24-.37a9.86 9.86 0 01-1.53-5.3c0-5.42 4.42-9.83 9.85-9.83 2.63 0 5.1 1.03 6.96 2.9a9.76 9.76 0 012.88 6.95c0 5.42-4.41 9.83-9.84 9.83zm5.53-7.27c-.3-.15-1.77-.87-2.05-.97-.28-.1-.48-.15-.68.15-.2.29-.78.97-.95 1.17-.17.2-.35.22-.65.07-.3-.15-1.26-.46-2.4-1.48-.89-.79-1.49-1.77-1.66-2.07-.17-.29-.02-.45.13-.6.13-.13.29-.35.43-.52.15-.17.2-.29.3-.48.1-.19.05-.36-.02-.51-.07-.15-.68-1.64-.93-2.24-.25-.6-.5-.52-.68-.53-.17-.01-.36-.01-.55-.01-.19 0-.5.07-.76.36-.26.29-1 1-1 2.44 0 1.43 1.03 2.82 1.19 3.02.15.19 2.03 3.2 5.02 4.48 2.99 1.28 2.99.85 3.53.8.54-.05 1.76-.72 2.01-1.42.25-.7.25-1.3.17-1.42-.07-.12-.27-.19-.57-.34z"></path>
</svg>
